<?xml version="1.0" encoding="UTF-8"?><svg id="Layer_2" xmlns="http://www.w3.org/2000/svg" viewBox="0 0 1200 1200"><defs><style>.cls-1{fill:#f94460;}.cls-2{fill:#fff;}.cls-3{fill:#128cc1;}.cls-4{fill:#f92;}.cls-4,.cls-5{stroke:#000;stroke-miterlimit:10;stroke-width:14.55px;}.cls-5{fill:#ffe13f;}</style></defs><rect class="cls-2" y="761.5" width="1200" height="265"/><rect class="cls-3" width="1200" height="837"/><rect y="932.5" width="1200" height="20"/><rect class="cls-1" y="952" width="1200" height="248"/><g><g><path class="cls-4" d="m308.85,397.2l-64.38,128.76c-10.69,21.38,4.86,46.54,28.76,46.54h128.76c23.9,0,39.45-25.16,28.76-46.54l-64.38-128.76c-11.85-23.7-45.67-23.7-57.52,0Z"/><path class="cls-5" d="m267.82,397.2l-64.38,128.76c-10.69,21.38,4.86,46.54,28.76,46.54h128.76c23.9,0,39.45-25.16,28.76-46.54l-64.38-128.76c-11.85-23.7-45.67-23.7-57.52,0Z"/></g><g><g><path class="cls-2" d="m511.65,449.87v-81.87h39.5c4.53,0,8.61,1.1,12.23,3.28,3.62,2.19,6.54,5.11,8.77,8.77,2.23,3.66,3.34,7.72,3.34,12.17v2.03c0,4.54-1.12,8.67-3.34,12.41-2.23,3.74-5.15,6.72-8.77,8.95-3.62,2.23-7.7,3.34-12.23,3.34h-20.05v30.91h-19.45Zm19.45-46.19h14.32c1.99,0,3.7-.44,5.13-1.31,1.43-.88,2.59-2.07,3.46-3.58.87-1.51,1.31-3.3,1.31-5.37,0-1.83-.4-3.52-1.19-5.07-.8-1.55-1.93-2.81-3.4-3.76-1.47-.96-3.24-1.43-5.31-1.43h-14.32v20.53Z"/><path class="cls-2" d="m582.3,449.87v-13.48h54.06v13.48h-54.06Zm12.77,0v-47.14h-12.53v-13.84h27.93l.84,7.76c1.27-2.55,3.3-4.67,6.09-6.38,2.78-1.71,6.24-2.57,10.38-2.57,5.49,0,9.77,1.59,12.83,4.77,3.06,3.18,4.59,7.4,4.59,12.65,0,1.28-.02,2.55-.06,3.82-.04,1.27-.18,2.59-.42,3.94h-15.51v-3.22c0-1.51-.32-2.86-.96-4.06-.64-1.19-1.53-2.17-2.69-2.92-1.15-.76-2.53-1.14-4.12-1.14-1.67,0-3.1.44-4.3,1.31-1.19.88-2.11,2.01-2.74,3.4-.64,1.39-.95,2.92-.95,4.59v39.03h-18.38Z"/><path class="cls-2" d="m684.22,451.06c-6.45,0-11.99-1.29-16.65-3.88-4.65-2.58-8.22-6.21-10.68-10.86-2.47-4.65-3.7-9.92-3.7-15.81v-2.27c0-6.04,1.25-11.38,3.76-15.99,2.51-4.61,6.07-8.19,10.68-10.74,4.61-2.55,10.07-3.82,16.35-3.82,6.6,0,12.23,1.29,16.89,3.88,4.65,2.59,8.21,6.17,10.68,10.74,2.46,4.58,3.7,9.89,3.7,15.93v2.27c0,6.13-1.25,11.48-3.76,16.05-2.51,4.58-6.07,8.14-10.68,10.68-4.62,2.55-10.14,3.82-16.59,3.82Zm0-11.93c3.18,0,5.83-1.19,7.94-3.58,2.11-2.39,3.16-5.49,3.16-9.31v-13.72c0-3.82-1.05-6.92-3.16-9.31-2.11-2.39-4.76-3.58-7.94-3.58s-5.73,1.19-7.88,3.58c-2.15,2.39-3.22,5.49-3.22,9.31v13.72c0,3.82,1.07,6.92,3.22,9.31,2.15,2.39,4.77,3.58,7.88,3.58Z"/><path class="cls-2" d="m746.75,472.19c-3.18,0-6.27-.34-9.25-1.02-2.98-.68-5.47-1.57-7.46-2.69v-12.05c1.11.56,2.69,1.15,4.71,1.79,2.03.64,4.16.96,6.39.96,1.67,0,3.18-.2,4.53-.6,1.35-.4,2.45-1.29,3.28-2.69.84-1.39,1.25-3.52,1.25-6.38v-46.78h-20.17v-13.84h38.91v60.75c0,7.48-1.99,13.11-5.97,16.89-3.98,3.78-9.39,5.67-16.23,5.67Zm5.25-94.88v-14.56h14.8v14.56h-14.8Z"/><path class="cls-2" d="m827.79,451.06c-7.08,0-12.93-1.21-17.54-3.64-4.62-2.43-8.02-5.89-10.2-10.38-2.19-4.49-3.28-9.85-3.28-16.05v-3.22c0-6.36,1.29-11.79,3.88-16.29,2.59-4.49,6.25-7.92,10.98-10.26,4.73-2.35,10.36-3.52,16.89-3.52,5.97,0,11.12,1.1,15.45,3.28,4.34,2.19,7.68,5.27,10.03,9.25,2.35,3.98,3.52,8.71,3.52,14.2v8.47h-40.7v3.34c0,4.3,1.07,7.52,3.22,9.67,2.15,2.15,4.97,3.22,8.47,3.22,3.82,0,6.68-.93,8.59-2.8,1.91-1.87,2.86-4.71,2.86-8.53h17.54c0,4.86-1.21,9.03-3.64,12.53-2.43,3.5-5.85,6.17-10.26,8-4.42,1.83-9.69,2.74-15.81,2.74Zm-10.98-38.55h22.2v-1.55c0-2.23-.46-4.18-1.37-5.85-.91-1.67-2.21-3-3.88-4-1.67-.99-3.54-1.49-5.61-1.49-2.31,0-4.3.56-5.97,1.67-1.67,1.11-2.98,2.57-3.94,4.36-.95,1.79-1.43,3.76-1.43,5.91v.96Z"/><path class="cls-2" d="m897.01,451.06c-3.98,0-7.7-.74-11.16-2.21-3.46-1.47-6.53-3.56-9.19-6.27-2.67-2.7-4.73-5.83-6.21-9.37-1.47-3.54-2.21-7.46-2.21-11.76v-4.18c0-4.3.73-8.21,2.21-11.76,1.47-3.54,3.54-6.66,6.21-9.37,2.66-2.7,5.75-4.79,9.25-6.27,3.5-1.47,7.28-2.21,11.34-2.21h2.74c5.49,0,10.22,1.1,14.2,3.28,3.98,2.19,7.06,5.19,9.25,9.01,2.19,3.82,3.28,8.23,3.28,13.25h-16.35c0-3.34-.42-5.99-1.25-7.94-.84-1.95-2.09-3.38-3.76-4.3-1.67-.91-3.7-1.37-6.09-1.37-3.1,0-5.71,1.07-7.82,3.22-2.11,2.15-3.16,5.37-3.16,9.67v13.72c0,3.98.97,7.12,2.92,9.43,1.95,2.31,4.79,3.46,8.53,3.46,2.39,0,4.38-.44,5.97-1.31,1.59-.87,2.78-2.31,3.58-4.3.79-1.99,1.19-4.65,1.19-8h16.23c0,5.41-1.13,10.02-3.4,13.84-2.27,3.82-5.43,6.72-9.49,8.71-4.06,1.99-8.79,2.98-14.2,2.98h-2.63Z"/><path class="cls-2" d="m981.86,451.18c-8.28,0-14.68-1.73-19.22-5.19-4.53-3.46-6.8-9.33-6.8-17.6v-25.66h-15.99v-13.84h16.71l6.56-19.45h11.46v19.45h25.42v13.84h-25.42v23.87c0,2.15.44,4,1.31,5.55.87,1.55,2.29,2.75,4.24,3.58,1.95.84,4.55,1.25,7.82,1.25,2.31,0,4.53-.28,6.68-.84,2.15-.55,3.94-1.23,5.37-2.03v13.61c-2.15,1.11-4.89,1.97-8.23,2.57-3.34.6-6.64.9-9.91.9Z"/></g><g><path class="cls-2" d="m541.01,563.64c-4.14,0-8.1-.44-11.88-1.31-3.78-.88-7.1-2.27-9.96-4.18-2.86-1.91-5.13-4.43-6.8-7.58-1.67-3.14-2.51-6.9-2.51-11.28v-1.25c0-.44.04-.85.12-1.25h11.7c-.08.48-.12.94-.12,1.37v1.25c0,3.26.79,5.93,2.39,8,1.59,2.07,3.82,3.6,6.68,4.59,2.86,1,6.25,1.49,10.14,1.49s7.12-.44,9.91-1.31c2.78-.88,4.95-2.31,6.5-4.3,1.55-1.99,2.33-4.61,2.33-7.88,0-2.94-.88-5.29-2.63-7.04-1.75-1.75-4.04-3.16-6.86-4.24-2.83-1.07-5.93-2.05-9.31-2.92-3.38-.87-6.76-1.83-10.14-2.86-3.38-1.03-6.49-2.39-9.31-4.06-2.83-1.67-5.11-3.92-6.86-6.74-1.75-2.82-2.63-6.42-2.63-10.8,0-5.01,1.35-9.15,4.06-12.41,2.7-3.26,6.28-5.67,10.74-7.22,4.45-1.55,9.35-2.33,14.68-2.33s10.16.78,14.5,2.33c4.34,1.55,7.82,3.98,10.44,7.28,2.63,3.3,3.94,7.66,3.94,13.07v1.55h-11.58v-1.91c0-2.7-.74-4.99-2.21-6.86-1.47-1.87-3.5-3.28-6.09-4.24-2.59-.95-5.59-1.43-9.01-1.43-3.18,0-6.07.4-8.65,1.19-2.59.8-4.6,2.03-6.03,3.7-1.43,1.67-2.15,3.86-2.15,6.56s.85,5.01,2.57,6.68c1.71,1.67,3.98,3,6.8,4,2.82,1,5.95,1.91,9.37,2.74,3.42.84,6.82,1.75,10.2,2.74,3.38,1,6.48,2.35,9.31,4.06,2.82,1.71,5.13,3.96,6.92,6.74,1.79,2.79,2.69,6.41,2.69,10.86,0,6.05-1.39,10.92-4.18,14.62-2.79,3.7-6.53,6.38-11.22,8.06-4.7,1.67-9.99,2.51-15.87,2.51Z"/><path class="cls-2" d="m607.36,563.64c-6.52,0-11.76-1.83-15.69-5.49-3.94-3.66-5.91-9.19-5.91-16.59v-40.1h11.93v37.83c0,5.09,1.19,8.89,3.58,11.4,2.39,2.51,5.65,3.76,9.79,3.76,2.86,0,5.39-.7,7.58-2.09,2.19-1.39,3.9-3.3,5.13-5.73,1.23-2.43,1.85-5.11,1.85-8.06v-37.12h11.81v50.01c0,1.27.3,2.21.9,2.81s1.45.9,2.57.9c.72,0,1.49-.1,2.33-.3.83-.2,1.69-.62,2.57-1.25v7.76c-1.03.72-2.33,1.27-3.88,1.67-1.55.4-3.12.6-4.71.6-2.86,0-5.03-.42-6.5-1.25-1.47-.84-2.47-2.01-2.98-3.52-.52-1.51-.86-3.22-1.02-5.13-1.19,2.15-2.71,3.96-4.53,5.43-1.83,1.47-3.98,2.59-6.45,3.34-2.47.76-5.25,1.13-8.35,1.13Z"/><path class="cls-2" d="m658.68,562.44v-60.99h9.67l1.19,8.71c1.83-3.42,4.42-5.93,7.76-7.52,3.34-1.59,7.04-2.39,11.1-2.39,6.6,0,11.91,1.87,15.93,5.61,4.02,3.74,6.03,9.31,6.03,16.71v39.86h-11.93v-36.52c0-5.73-1.17-9.91-3.52-12.53-2.35-2.63-5.63-3.94-9.85-3.94-2.95,0-5.49.74-7.64,2.21-2.15,1.47-3.82,3.5-5.01,6.09-1.19,2.59-1.79,5.55-1.79,8.89v35.8h-11.93Z"/><path class="cls-2" d="m724.91,562.44v-9.19h55.02v9.19h-55.02Zm15.99,0v-51.68h-15.51v-9.31h25.06l.72,8.95c1.35-3.18,3.54-5.67,6.56-7.46,3.02-1.79,6.48-2.69,10.38-2.69,5.97,0,10.56,1.79,13.78,5.37,3.22,3.58,4.83,8.12,4.83,13.6,0,.8-.02,1.57-.06,2.33-.04.76-.14,1.65-.3,2.69h-10.14v-2.51c0-2.15-.42-4.14-1.25-5.97-.84-1.83-2.11-3.32-3.82-4.48-1.71-1.15-3.92-1.73-6.62-1.73s-4.93.76-6.68,2.27c-1.75,1.51-3.06,3.42-3.94,5.73-.88,2.31-1.31,4.77-1.31,7.4v37.47h-11.7Z"/><path class="cls-2" d="m824.8,562.44v-51.68h-21.84v-9.31h33.77v60.99h-11.93Zm-21.84,0v-9.19h54.42v9.19h-54.42Zm21.24-73.52v-11.46h11.22v11.46h-11.22Z"/><path class="cls-2" d="m898.2,563.64c-5.01,0-9.45-.7-13.31-2.09-3.86-1.39-6.88-3.42-9.07-6.09-2.19-2.67-3.28-5.83-3.28-9.49v-1.07c0-.48.04-.99.12-1.55h10.26v1.19c0,3.34,1.45,5.95,4.36,7.82,2.9,1.87,7.06,2.81,12.47,2.81,4.85,0,8.53-.84,11.04-2.51,2.51-1.67,3.76-3.94,3.76-6.8,0-1.83-.52-3.34-1.55-4.53-1.03-1.19-2.88-2.23-5.55-3.1-2.67-.88-6.5-1.71-11.52-2.51-5.33-.95-9.63-2.13-12.89-3.52-3.26-1.39-5.61-3.22-7.04-5.49-1.43-2.27-2.15-5.11-2.15-8.53,0-3.98,1.07-7.28,3.22-9.91,2.15-2.62,5.15-4.61,9.01-5.97,3.86-1.35,8.37-2.03,13.55-2.03,4.53,0,8.61.68,12.23,2.03,3.62,1.35,6.5,3.26,8.65,5.73,2.15,2.47,3.22,5.37,3.22,8.71v.84c0,.32-.08.76-.24,1.31h-10.38c0-2.86-.66-5.03-1.97-6.5-1.31-1.47-3.06-2.46-5.25-2.98-2.19-.52-4.59-.78-7.22-.78-9.23,0-13.84,2.86-13.84,8.59,0,1.51.48,2.77,1.43,3.76.95,1,2.69,1.89,5.19,2.69,2.51.8,6.1,1.67,10.8,2.63,5.81,1.03,10.4,2.29,13.78,3.76,3.38,1.47,5.81,3.38,7.28,5.73,1.47,2.35,2.21,5.39,2.21,9.13,0,4.22-1.07,7.72-3.22,10.5-2.15,2.79-5.27,4.85-9.37,6.21-4.1,1.35-9.01,2.03-14.74,2.03Z"/><path class="cls-2" d="m970.64,563.64c-6.37,0-11.64-1.27-15.81-3.82-4.18-2.55-7.28-6.13-9.31-10.74-2.03-4.61-3.04-9.91-3.04-15.87v-2.51c0-6.13,1.15-11.48,3.46-16.05,2.31-4.57,5.61-8.12,9.91-10.62,4.3-2.51,9.35-3.76,15.16-3.76s10.32,1.11,14.26,3.34c3.94,2.23,7,5.25,9.19,9.07,2.19,3.82,3.28,8.2,3.28,13.13v8.12h-42.85v2.03c0,6.29,1.51,11.06,4.53,14.32,3.02,3.26,6.84,4.89,11.46,4.89,5.09,0,8.97-1.23,11.64-3.7,2.66-2.46,4-6.28,4-11.46h11.22c0,4.85-1.13,9.05-3.4,12.59-2.27,3.54-5.41,6.27-9.43,8.17-4.02,1.91-8.77,2.86-14.26,2.86Zm-15.63-37.35h31.03v-1.91c0-3.02-.62-5.71-1.85-8.06-1.23-2.34-3-4.2-5.31-5.55-2.31-1.35-4.97-2.03-8-2.03-3.42,0-6.31.84-8.65,2.51-2.35,1.67-4.14,3.8-5.37,6.39-1.23,2.59-1.85,5.27-1.85,8.06v.6Z"/></g></g></g></svg>