<svg xmlns="http://www.w3.org/2000/svg" version="1.1" xmlns:xlink="http://www.w3.org/1999/xlink" xmlns:svgjs="http://svgjs.com/svgjs" width="1000" height="1000"><rect width="1000" height="1000" rx="150" ry="150" fill="#128cc1"></rect><g transform="matrix(5.884516366311145,0,0,5.884516366311145,100.00276978819971,166.1186447850094)"><svg xmlns="http://www.w3.org/2000/svg" version="1.1" xmlns:xlink="http://www.w3.org/1999/xlink" xmlns:svgjs="http://svgjs.com/svgjs" width="135.95" height="113.48"><svg id="Layer_2" xmlns="http://www.w3.org/2000/svg" viewBox="0 0 135.95 113.48"><defs><style>.cls-1{fill:#f92;}.cls-1,.cls-2{stroke:#000;stroke-miterlimit:10;stroke-width:7.95px;}.cls-2{fill:#ffe13f;}</style></defs><g id="Layer_2-2"><g><path class="cls-1" d="M63.47,13.69L28.28,84.07c-5.84,11.69,2.65,25.43,15.72,25.43H114.38c13.06,0,21.56-13.75,15.72-25.43L94.91,13.69c-6.48-12.95-24.96-12.95-31.44,0Z"></path><path class="cls-2" d="M41.04,13.69L5.85,84.07c-5.84,11.69,2.65,25.43,15.72,25.43H91.95c13.06,0,21.56-13.75,15.72-25.43L72.48,13.69c-6.48-12.95-24.96-12.95-31.44,0Z"></path></g></g></svg></svg></g></svg>